<?xml version="1.0" encoding="utf-8"?>
<!-- Generator: Adobe Illustrator 16.0.3, SVG Export Plug-In . SVG Version: 6.00 Build 0)  -->
<!DOCTYPE svg PUBLIC "-//W3C//DTD SVG 1.1//EN" "http://www.w3.org/Graphics/SVG/1.1/DTD/svg11.dtd">
<svg version="1.1" id="Layer_1" xmlns="http://www.w3.org/2000/svg" xmlns:xlink="http://www.w3.org/1999/xlink" x="0px" y="0px"
	 width="50px" height="50px" viewBox="0 0 50 50" enable-background="new 0 0 50 50" xml:space="preserve">
<g>
	<path d="M11.138,14.558c0-1.649,0.918-2.474,2.756-2.474c1.837,0,2.756,0.824,2.756,2.474c0,0.786-0.23,1.397-0.689,1.835
		c-0.459,0.437-1.148,0.655-2.066,0.655C12.056,17.048,11.138,16.218,11.138,14.558z M16.417,37.916h-5.063V19.355h5.063V37.916z"/>
	<path d="M38.862,37.916h-5.064V27.075c0-1.339-0.238-2.344-0.713-3.013c-0.477-0.67-1.234-1.005-2.274-1.005
		c-1.417,0-2.44,0.474-3.071,1.419c-0.631,0.947-0.946,2.516-0.946,4.707v8.732h-5.063V19.355h3.868l0.681,2.374h0.282
		c0.564-0.896,1.342-1.574,2.332-2.034c0.99-0.459,2.117-0.688,3.379-0.688c2.157,0,3.796,0.584,4.913,1.751
		c1.118,1.168,1.678,2.854,1.678,5.056V37.916z"/>
</g>
</svg>
