<?xml version="1.0" encoding="utf-8"?>
<!-- Generator: Adobe Illustrator 16.0.3, SVG Export Plug-In . SVG Version: 6.00 Build 0)  -->
<!DOCTYPE svg PUBLIC "-//W3C//DTD SVG 1.1//EN" "http://www.w3.org/Graphics/SVG/1.1/DTD/svg11.dtd">
<svg version="1.1" id="Layer_1" xmlns="http://www.w3.org/2000/svg" xmlns:xlink="http://www.w3.org/1999/xlink" x="0px" y="0px"
	 width="131.75px" height="69.917px" viewBox="0 0 131.75 69.917" enable-background="new 0 0 131.75 69.917" xml:space="preserve">
<g>
	<g>
		<path d="M23.483,27.427c0,0,13.055-8.61,23.335-5.482c5.176,1.574,7.17,8.153,7.17,8.153s-4.641-5.403-10.828-6.187
			C35.24,22.906,23.483,27.427,23.483,27.427z"/>
	</g>
</g>
<path d="M123.209,15.486c-6.211,2.3-11.17,11.39-14.33,18.911c-2.83-5.081-7.602-11.121-14.271-11.331
	c-5.689-0.18-12.58,8.43-12.898,8.831c0.33-0.16,6.91-3.371,13.039-1.8c4.561,1.16,9.479,4.61,12.899,7.379
	c-0.64,1.682-1.159,3.189-1.569,4.421c-3.209-5.021-9.16-8.601-16.149-9.051c-5.569-0.37-10.75,1.32-14.569,4.319
	c-6.551-3.77-14.381-3.22-20.281-1.529c-3.229-4.94-9.14-8.44-16.06-8.9c-6.82-0.45-13.03,2.17-16.89,6.51
	c-0.49-9.36-2.44-26.49-10.11-30.61c-2.97-1.6-6.38-1.14-10.16,1.38l1.57,2.36c2.88-1.92,5.25-2.33,7.25-1.25
	c6.79,3.65,8.58,23.03,8.77,32.2c-0.77,1.66-1.24,3.461-1.37,5.35c-0.62,9.511,7.76,17.83,18.68,18.551
	c10.91,0.71,20.3-6.439,20.93-15.939c0.13-1.949-0.13-3.859-0.7-5.649c4.121-1.101,10-1.819,15.2,0.739
	c-1.84,2.42-2.989,5.291-3.188,8.41c-0.62,9.51,7.738,17.82,18.658,18.541c10.922,0.729,20.312-6.42,20.94-15.94
	c0.13-1.989-0.13-3.921-0.729-5.739c0.649-1.881,1.41-3.939,2.25-6.07c1.101,0.99,1.779,1.66,1.891,1.771
	c-0.04-0.14-0.471-1.431-1.29-3.261v-0.01c3.61-8.77,8.56-18.12,13.47-19.939c1.42-0.53,2.69-0.37,4.01,0.5l1.551-2.37
	C127.668,14.907,125.459,14.646,123.209,15.486z M53.753,45.328c-0.48,7.016-7.974,12.213-16.741,11.616
	c-8.765-0.603-15.481-6.772-15.002-13.788c0.479-7.012,7.975-12.213,16.74-11.613C47.516,32.142,54.23,38.315,53.753,45.328z
	 M104.662,50.983C104.18,58,96.685,63.197,87.918,62.6c-8.766-0.603-15.482-6.772-15.002-13.788
	c0.48-7.012,7.977-12.213,16.74-11.613C98.426,37.798,105.137,43.971,104.662,50.983z"/>
</svg>
